<svg width="17" height="17" viewBox="0 0 17 17" fill="none" xmlns="http://www.w3.org/2000/svg">
<g id="Instagram / Negative" clip-path="url(#clip0_3026_56)">
<g id="Group">
<path id="Vector" d="M8.33337 1.96309C10.4709 1.96309 10.724 1.97246 11.5646 2.00996C12.3459 2.04434 12.7678 2.17559 13.049 2.28496C13.4209 2.42871 13.6896 2.60371 13.9677 2.88184C14.249 3.16309 14.4209 3.42871 14.5646 3.80059C14.674 4.08184 14.8053 4.50684 14.8396 5.28496C14.8771 6.12871 14.8865 6.38184 14.8865 8.51621C14.8865 10.6537 14.8771 10.9068 14.8396 11.7475C14.8053 12.5287 14.674 12.9506 14.5646 13.2318C14.4209 13.6037 14.2459 13.8725 13.9677 14.1506C13.6865 14.4318 13.4209 14.6037 13.049 14.7475C12.7678 14.8568 12.3428 14.9881 11.5646 15.0225C10.7209 15.06 10.4678 15.0693 8.33337 15.0693C6.19587 15.0693 5.94275 15.06 5.10212 15.0225C4.32087 14.9881 3.899 14.8568 3.61775 14.7475C3.24587 14.6037 2.97712 14.4287 2.699 14.1506C2.41775 13.8693 2.24587 13.6037 2.10212 13.2318C1.99275 12.9506 1.8615 12.5256 1.82712 11.7475C1.78962 10.9037 1.78025 10.6506 1.78025 8.51621C1.78025 6.37871 1.78962 6.12559 1.82712 5.28496C1.8615 4.50371 1.99275 4.08184 2.10212 3.80059C2.24587 3.42871 2.42087 3.15996 2.699 2.88184C2.98025 2.60059 3.24587 2.42871 3.61775 2.28496C3.899 2.17559 4.324 2.04434 5.10212 2.00996C5.94275 1.97246 6.19587 1.96309 8.33337 1.96309ZM8.33337 0.522461C6.1615 0.522461 5.88962 0.531836 5.0365 0.569336C4.1865 0.606836 3.60212 0.744336 3.09587 0.941211C2.56775 1.14746 2.12087 1.41934 1.67712 1.86621C1.23025 2.30996 0.958374 2.75684 0.752124 3.28184C0.555249 3.79121 0.417749 4.37246 0.380249 5.22246C0.342749 6.07871 0.333374 6.35059 0.333374 8.52246C0.333374 10.6943 0.342749 10.9662 0.380249 11.8193C0.417749 12.6693 0.555249 13.2537 0.752124 13.76C0.958374 14.2881 1.23025 14.735 1.67712 15.1787C2.12087 15.6225 2.56775 15.8975 3.09275 16.1006C3.60212 16.2975 4.18337 16.435 5.03337 16.4725C5.8865 16.51 6.15837 16.5193 8.33025 16.5193C10.5021 16.5193 10.774 16.51 11.6271 16.4725C12.4771 16.435 13.0615 16.2975 13.5678 16.1006C14.0928 15.8975 14.5396 15.6225 14.9834 15.1787C15.4271 14.735 15.7021 14.2881 15.9052 13.7631C16.1021 13.2537 16.2396 12.6725 16.2771 11.8225C16.3146 10.9693 16.324 10.6975 16.324 8.52559C16.324 6.35371 16.3146 6.08184 16.2771 5.22871C16.2396 4.37871 16.1021 3.79434 15.9052 3.28809C15.7084 2.75684 15.4365 2.30996 14.9896 1.86621C14.5459 1.42246 14.099 1.14746 13.574 0.944336C13.0646 0.747461 12.4834 0.609961 11.6334 0.572461C10.7771 0.531836 10.5053 0.522461 8.33337 0.522461Z" fill="#232536"/>
<path id="Vector_2" d="M8.33337 4.41309C6.06462 4.41309 4.224 6.25371 4.224 8.52246C4.224 10.7912 6.06462 12.6318 8.33337 12.6318C10.6021 12.6318 12.4427 10.7912 12.4427 8.52246C12.4427 6.25371 10.6021 4.41309 8.33337 4.41309ZM8.33337 11.1881C6.8615 11.1881 5.66775 9.99434 5.66775 8.52246C5.66775 7.05059 6.8615 5.85684 8.33337 5.85684C9.80525 5.85684 10.999 7.05059 10.999 8.52246C10.999 9.99434 9.80525 11.1881 8.33337 11.1881Z" fill="#232536"/>
<path id="Vector_3" d="M13.5646 4.25057C13.5646 4.78183 13.1334 5.20995 12.6052 5.20995C12.074 5.20995 11.6459 4.7787 11.6459 4.25057C11.6459 3.71932 12.0771 3.2912 12.6052 3.2912C13.1334 3.2912 13.5646 3.72245 13.5646 4.25057Z" fill="#232536"/>
</g>
</g>
<defs>
<clipPath id="clip0_3026_56">
<rect width="16" height="16" fill="white" transform="translate(0.333374 0.522461)"/>
</clipPath>
</defs>
</svg>
