<svg width="17" height="17" viewBox="0 0 17 17" fill="none" xmlns="http://www.w3.org/2000/svg">
<g id="Twitter / Negative" clip-path="url(#clip0_3026_54)">
<path id="Vector" d="M5.70006 15.0225C11.7363 15.0225 15.0388 10.0203 15.0388 5.68376C15.0388 5.54314 15.0357 5.39939 15.0294 5.25876C15.6719 4.79416 16.2263 4.21869 16.6666 3.55939C16.0683 3.82559 15.4331 3.99944 14.7826 4.07501C15.4675 3.66446 15.9803 3.0195 16.226 2.2597C15.5817 2.64156 14.877 2.91093 14.1423 3.05626C13.6472 2.53023 12.9926 2.18193 12.2797 2.06522C11.5669 1.94851 10.8354 2.06989 10.1985 2.41059C9.56149 2.75128 9.05449 3.29233 8.75586 3.95006C8.45722 4.6078 8.38358 5.3456 8.54631 6.04939C7.24162 5.98392 5.96525 5.64499 4.79995 5.05459C3.63464 4.46418 2.60642 3.63548 1.78194 2.6222C1.36289 3.34468 1.23466 4.19962 1.42331 5.01325C1.61196 5.82688 2.10333 6.53815 2.79756 7.00251C2.27638 6.98597 1.76661 6.84564 1.31038 6.59314V6.63376C1.30991 7.39196 1.57202 8.12691 2.05217 8.7137C2.53231 9.30049 3.20084 9.7029 3.94413 9.85251C3.46133 9.98461 2.95461 10.0039 2.46319 9.90876C2.67293 10.5608 3.08101 11.1311 3.63047 11.5401C4.17994 11.949 4.84337 12.1763 5.52819 12.19C4.36558 13.1033 2.92941 13.5986 1.451 13.5963C1.18882 13.5959 0.926892 13.5798 0.666626 13.5481C2.16853 14.5117 3.91565 15.0234 5.70006 15.0225Z" fill="#232536"/>
</g>
<defs>
<clipPath id="clip0_3026_54">
<rect width="16" height="16" fill="white" transform="translate(0.666626 0.522461)"/>
</clipPath>
</defs>
</svg>
